<?xml version="1.0" encoding="utf-8"?>
<!-- Generator: Adobe Illustrator 25.2.3, SVG Export Plug-In . SVG Version: 6.00 Build 0)  -->
<svg version="1.1" id="svg" xmlns="http://www.w3.org/2000/svg" xmlns:xlink="http://www.w3.org/1999/xlink" x="0px" y="0px"
	 viewBox="0 0 78 18.8" style="enable-background:new 0 0 78 18.8;" xml:space="preserve">
<style type="text/css">
	.st0{fill:#2956A2;}
</style>
<g>
	<path class="st0" d="M12.1,4.1h3.4L9.4,18.8H6.3L0,4.1h2.2c0.6,0,1.3,0.4,1.5,1l3.9,9.6C7.6,14.7,12.1,4.1,12.1,4.1z M31,16
		c-1.1,0-1.9-0.7-1.9-1.8V6.7h4.6V4.1H29V1.7c0.1-0.9-0.6-1.6-1.5-1.7h-1.7v4.1h-2.5v2.7h2.5v7.6c-0.2,2.2,1.5,4.2,3.7,4.3H30
		c1.2,0,2.3-0.2,3.5-0.5l0.1-0.1v-2.7l-0.3,0.1C32.7,15.8,31.8,16,31,16z M40,5.7V4.1h-3v14.6h3v-8.2c0-2.2,1.8-3.7,4.8-3.7H45
		l0.2-2.9h-0.4C42.8,3.8,41.2,4.4,40,5.7z M60.6,11.2c0,0.4,0,0.9-0.1,1.2v0.2H50.1c0.3,2.2,1.6,3.6,3.7,3.6c1.5,0,2.9-0.7,3.8-1.9
		l0.1-0.2l2.6,1.3l-0.2,0.2c-1.4,2-3.7,3.3-6.2,3.2c-4.3,0-7-3-7-7.4c0-4.5,2.8-7.5,7-7.5C58.1,3.8,60.6,6.7,60.6,11.2z M57.4,10.1
		c-0.3-2.5-1.6-3.7-3.7-3.7c-2,0-3.4,1.4-3.6,3.7H57.4z M78,11.2c0,4.5-3,7.5-7.5,7.5s-7.5-3-7.5-7.5s3-7.5,7.5-7.5
		C75,3.8,78,6.8,78,11.2z M70.6,6.6c-2.6,0-4.3,1.9-4.3,4.7S68,16,70.6,16s4.3-1.9,4.3-4.7S73,6.6,70.6,6.6z M19.3,0
		c-1.1,0-1.9,0.9-1.9,1.9s0.9,1.9,1.9,1.9c1.1,0,1.9-0.9,1.9-1.9S20.4,0,19.3,0z"/>
</g>
</svg>
